<svg width="305" height="153" viewBox="0 0 305 153" fill="none" xmlns="http://www.w3.org/2000/svg">
<path fill-rule="evenodd" clip-rule="evenodd" d="M20.117 0.633299C12.786 2.0553 0 9.86131 0 12.9153C0 13.5293 2.224 20.4033 2.518 20.6973C2.595 20.7743 4.301 19.7123 6.309 18.3383C24.858 5.6463 45.153 7.1273 61.896 22.3923C64.573 24.8333 64.204 24.0493 60.313 19.0253C48.999 4.42031 34.589 -2.1737 20.117 0.633299ZM266.375 1.62131C257.381 3.27131 249.387 7.54431 241.868 14.7183C236.34 19.9933 232.45 25.1403 225.62 36.2133C211.085 59.7793 202.043 64.5143 189.303 55.2333C187.15 53.6643 187.132 53.5603 189.848 58.2833C190.651 59.6803 193.633 65.1293 196.475 70.3933C207.408 90.6393 212.965 99.2203 219.719 106.286C237.107 124.476 254.589 117.964 267.183 88.6063C268.278 86.0543 269.12 83.8073 269.055 83.6123C268.99 83.4163 265.511 86.5313 261.324 90.5343C250.351 101.022 246.501 104.05 240.365 107.017C234.794 109.71 228.564 109.853 226.204 107.341L225.34 106.421L228.184 105.558C235.595 103.306 240.648 99.5063 255.271 85.1823C264.092 76.5413 269.867 71.7013 274.155 69.3553C274.431 69.2043 278.504 57.7513 278.34 57.5863C277.936 57.1833 272.172 59.2823 268.65 61.1163C263.385 63.8583 258.198 68.1133 248.828 77.3763C234.081 91.9553 227.526 96.3283 220.377 96.3563C217.287 96.3683 217.073 96.3133 216.178 95.2733C214.94 93.8353 214.985 93.5733 216.52 93.2853C222.496 92.1643 227.701 88.1203 242.969 72.7383C258.649 56.9393 263.195 53.2873 271.107 50.1333C274.023 48.9713 279.148 47.7363 281.058 47.7363C282.193 47.7363 282.362 47.4273 284.332 41.7433L285.514 38.3303L284.456 37.9133C282.72 37.2303 275.683 37.8003 271.676 38.9483C260.797 42.0663 253.837 47.3193 238.413 64.0493C225.752 77.7813 218.859 82.9933 212.61 83.5603C207.678 84.0073 205.39 81.4493 209.57 80.1623C216.011 78.1783 222.187 72.9313 233.715 59.6503C255.942 34.0433 268.473 26.5323 285.688 28.4963L288.759 28.8473L289.441 27.2563C292.064 21.1353 291.881 19.9503 288.177 19.0503C269.039 14.4003 251.927 24.0363 229.271 52.2203C217.544 66.8093 204.918 74.8713 201.2 70.1453C200.238 68.9213 200.177 68.4393 200.986 68.4393C207.333 68.4393 215.654 60.9473 230.078 42.2423C250.204 16.1443 267.944 5.88931 287.156 9.24631C292.439 10.1693 301.34 13.8813 303.807 16.1893C304.289 16.6413 304.78 16.9143 304.898 16.7963C305.247 16.4483 299.254 11.0943 296.166 8.9953C287.257 2.9403 275.306 -0.0176942 266.375 1.62131ZM27.148 19.0143C20.506 20.0723 11.601 24.1693 6.144 28.6783L5.062 29.5723L6.793 34.7793C7.746 37.6423 8.586 40.0473 8.661 40.1223C8.737 40.1973 10.459 39.1263 12.488 37.7423C35.987 21.7183 63.082 28.3893 81.422 54.7153C84.714 59.4423 96.094 77.8223 96.094 78.4143C96.094 78.4883 98.661 83.0863 101.798 88.6313C117.582 116.529 124.012 123.739 133.594 124.283L137.305 124.494L134.858 126.128C127.173 131.26 121.968 130.97 108.594 124.663C95.874 118.665 91.702 117.504 83.008 117.54C72.228 117.586 62.768 120.775 51.832 128.052L47.251 131.1L49.895 133.783C51.349 135.259 53.633 137.344 54.97 138.416L57.402 140.366L59.072 139.235C70.704 131.361 81.637 127.882 93.336 128.333C99.709 128.579 100.304 128.683 110.351 131.308C119.453 133.686 126.438 133.596 130.433 131.049L131.374 130.45L130.484 131.698C126 137.996 118.405 140.033 105.664 138.355C92.45 136.614 83.275 138.204 71.387 144.295C66.817 146.636 66.851 146.478 70.562 148.074C86.07 154.743 103.558 153.53 118.945 144.717C125.157 141.16 129.258 137.726 139.068 127.867C153.77 113.092 158.422 109.496 167.578 105.831C180.977 100.468 192.262 101.977 210.783 111.609C218.106 115.418 223.546 117.532 226.825 117.845C227.862 117.943 228.371 117.923 227.956 117.799C224.446 116.751 218.976 113.605 210.715 107.885C190.12 93.6253 176.771 90.1003 161.523 94.8943C155.706 96.7233 150.981 99.3773 140.43 106.742C130.606 113.6 122.737 115.061 119.138 110.696L117.954 109.26L120.403 108.766C125.45 107.747 129.933 104.968 138.436 97.5843C160.89 78.0873 180.113 79.1263 209.961 101.45L211.523 102.619L209.769 100.471C189.269 75.3723 163.991 67.4823 143.47 79.7783C139.938 81.8943 137.395 83.8473 127.93 91.7113C121.035 97.4383 113.093 100.108 110.587 97.5413C109.098 96.0153 109.367 95.3943 111.918 94.4633C115.79 93.0493 118.586 90.8883 126.172 83.4463C140.005 69.8743 147.024 65.9783 159.213 65.1023C171.101 64.2483 186.246 71.0543 197.754 82.4233C201.251 85.8773 201.462 85.8483 198.998 82.2493C183.277 59.2863 160.08 49.7233 141.227 58.4343C135.648 61.0113 131.491 64.2463 123.437 72.2753C113.041 82.6403 108.563 85.5093 104.089 84.6733C103.122 84.4923 101.428 82.2033 102.057 81.9283C108.225 79.2333 111.59 76.3993 118.725 67.8923C121.265 64.8633 124.287 61.4053 125.441 60.2073C143.713 41.2433 166.155 42.0943 187.243 62.5503L190.698 65.9003L189.049 63.1763C175.399 40.6133 153.233 31.1823 135.24 40.2813C128.602 43.6383 124.073 47.6253 116.45 56.8233C107.498 67.6263 103.109 71.1233 98.041 71.4893C96.065 71.6323 93.742 69.8323 94.967 69.1073C95.049 69.0583 96.286 68.4583 97.715 67.7753C101.129 66.1413 106.733 60.7963 110.584 55.5003C119.842 42.7683 122.703 39.4653 127.81 35.6173C142.787 24.3323 161.278 26.7303 177.314 42.0383C179.952 44.5563 180.13 44.6653 179.282 43.2443C166.006 20.9953 144.7 13.0923 127.602 24.0743C122.459 27.3773 117.776 32.7283 110.823 43.2443C97.866 62.8413 89.218 63.5923 76.748 46.2053C61.427 24.8423 45.473 16.0973 27.148 19.0143ZM36.523 37.9513C29.912 38.7153 20.606 42.5663 14.399 47.1063L11.415 49.2893L13.062 54.4703C13.968 57.3193 14.783 59.8683 14.874 60.1333C14.978 60.4373 16.635 59.5203 19.336 57.6643C40.643 43.0293 63.084 45.4513 82.982 64.5333C87.715 69.0723 87.667 68.6403 82.679 61.7993C70.599 45.2323 52.854 36.0633 36.523 37.9513ZM42.37 57.6863C34.175 59.4713 26.312 63.2873 19.674 68.7043L18.06 70.0213L20.006 75.8863C21.391 80.0583 22.083 81.6513 22.402 81.4043C22.649 81.2123 24.21 79.9873 25.871 78.6803C47.118 61.9663 72.574 64.3063 94.894 85.0263C99.152 88.9793 92.928 80.5703 87.726 75.3413C73.381 60.9253 56.922 54.5183 42.37 57.6863ZM51.089 77.4343C41.531 79.4953 24.817 89.1473 25.575 92.1683C26.14 94.4183 29.8 103.266 30.026 102.928C30.616 102.043 39.565 95.6953 42.779 93.8813C62.31 82.8573 84.616 85.9123 103.19 102.155C107.855 106.234 108.13 106.386 106.442 103.96C92.866 84.4453 69.812 73.3973 51.089 77.4343ZM65.028 96.9713C56.213 98.1243 44.701 103.503 36.164 110.457L33.989 112.229L34.819 113.869C35.854 115.915 40.241 122.736 40.522 122.736C40.636 122.736 43.334 120.986 46.517 118.846C67.302 104.878 85.344 103.954 105.874 115.806C113.196 120.033 118.173 122.239 121.875 122.898L123.242 123.141L121.68 122.488C118.924 121.336 112.805 117.103 108.984 113.706C94.051 100.427 79.874 95.0303 65.028 96.9713ZM258.984 108.258C258.984 110.363 249.946 120.768 245.802 123.431C236.407 129.471 228.902 128.755 210.937 120.109C194.162 112.034 186.81 110.222 177.782 111.935C171.774 113.075 171.562 113.713 175.185 119.745C182.905 132.599 190.138 140.357 198.828 145.106C214.092 153.447 234.035 147.679 246.46 131.33C249.527 127.294 249.665 126.912 247.223 129.213C234.637 141.076 217.414 140.394 202.344 127.437C198.914 124.488 205.058 125.226 216.783 129.171C233.541 134.81 243.75 132.498 252.458 121.091C255.059 117.684 260.065 107.893 259.206 107.893C259.084 107.893 258.984 108.057 258.984 108.258Z" fill="white" style="fill:white;fill-opacity:1;"/>
</svg>
