<svg width="679" height="340" viewBox="0 0 679 340" fill="none" xmlns="http://www.w3.org/2000/svg">
<path fill-rule="evenodd" clip-rule="evenodd" d="M44.7822 1.40978C28.4627 4.57527 0 21.9521 0 28.7506C0 30.1174 4.95081 45.4195 5.60528 46.074C5.77669 46.2454 9.5744 43.8813 14.0444 40.8227C55.3361 12.5692 100.514 15.866 137.786 49.8472C143.745 55.2811 142.924 53.5359 134.262 42.352C109.076 9.84 76.9981 -4.83885 44.7822 1.40978ZM592.974 3.60917C572.952 7.28221 555.157 16.7943 538.419 32.7642C526.113 44.5068 517.454 55.9645 502.25 80.614C469.894 133.074 449.765 143.614 421.405 122.954C416.612 119.461 416.572 119.23 422.618 129.744C424.406 132.854 431.044 144.984 437.37 156.702C461.708 201.771 474.079 220.873 489.114 236.603C527.821 277.095 566.737 262.599 594.773 197.245C597.21 191.564 599.084 186.562 598.94 186.128C598.795 185.692 591.051 192.626 581.73 201.537C557.303 224.884 548.733 231.625 535.073 238.23C522.672 244.225 508.803 244.543 503.55 238.951L501.626 236.903L507.957 234.982C524.455 229.969 535.703 221.51 568.255 189.623C587.892 170.388 600.747 159.613 610.293 154.391C610.907 154.055 619.974 128.559 619.609 128.192C618.71 127.295 605.878 131.968 598.038 136.05C586.318 142.154 574.771 151.626 553.913 172.246C521.085 204.701 506.493 214.435 490.578 214.498C483.7 214.524 483.223 214.402 481.231 212.087C478.475 208.886 478.575 208.302 481.992 207.661C495.295 205.166 506.882 196.163 540.87 161.922C575.775 126.752 585.895 118.622 603.508 111.601C609.999 109.014 621.408 106.265 625.66 106.265C628.186 106.265 628.562 105.577 632.948 92.9242L635.579 85.3266L633.224 84.3983C629.359 82.8779 613.694 84.1468 604.774 86.7023C580.557 93.6432 565.063 105.337 530.728 142.579C502.544 173.148 487.199 184.75 473.288 186.012C462.309 187.008 457.216 181.313 466.521 178.448C480.859 174.032 494.608 162.351 520.27 132.787C569.749 75.7834 597.644 59.0632 635.966 63.4352L642.803 64.2166L644.321 60.6749C650.16 47.049 649.752 44.4111 641.507 42.4076C598.904 32.0563 560.811 53.5069 510.377 116.247C484.272 148.723 456.165 166.67 447.889 156.15C445.747 153.425 445.611 152.352 447.412 152.352C461.541 152.352 480.065 135.674 512.174 94.035C556.976 35.9386 596.467 13.1101 639.234 20.5831C650.995 22.6378 670.809 30.901 676.301 36.0388C677.374 37.045 678.467 37.6527 678.729 37.39C679.506 36.6154 666.165 24.6969 659.291 20.0243C639.459 6.54536 612.855 -0.0393889 592.974 3.60917ZM60.4338 42.3275C45.6481 44.6827 25.8248 53.803 13.6771 63.8404L11.2685 65.8305L15.1218 77.4218C17.2433 83.7951 19.1132 89.1488 19.2801 89.3158C19.4493 89.4827 23.2826 87.0986 27.7994 84.0177C80.1102 48.3468 140.426 63.1971 181.252 121.801C188.581 132.324 213.914 173.239 213.914 174.557C213.914 174.722 219.628 184.957 226.611 197.301C261.748 259.404 276.061 275.454 297.392 276.665L305.653 277.135L300.206 280.773C283.098 292.197 271.511 291.551 241.74 277.511C213.424 264.159 204.137 261.575 184.783 261.655C160.786 261.757 139.727 268.856 115.383 285.056L105.185 291.841L111.071 297.813C114.307 301.099 119.392 305.74 122.368 308.127L127.782 312.468L131.499 309.95C157.393 292.422 181.731 284.677 207.774 285.681C221.961 286.229 223.285 286.46 245.651 292.304C265.913 297.597 281.462 297.397 290.355 291.727L292.45 290.394L290.469 293.172C280.487 307.192 263.58 311.726 235.217 307.991C205.802 304.115 185.377 307.655 158.914 321.214C148.74 326.425 148.816 326.073 157.077 329.626C191.599 344.472 230.529 341.772 264.782 322.153C278.61 314.235 287.74 306.591 309.577 284.644C342.305 251.753 352.661 243.748 373.043 235.59C402.871 223.651 427.992 227.01 469.221 248.452C485.523 256.931 497.633 261.637 504.932 262.334C507.241 262.552 508.374 262.508 507.45 262.231C499.636 259.899 487.46 252.895 469.07 240.162C423.224 208.418 393.508 200.571 359.564 211.243C346.615 215.314 336.097 221.223 312.609 237.618C290.74 252.884 273.223 256.136 265.212 246.42L262.576 243.223L268.028 242.123C279.263 239.855 289.242 233.669 308.171 217.231C358.155 173.829 400.947 176.142 467.391 225.837L470.869 228.439L466.964 223.658C421.329 167.785 365.058 150.221 319.377 177.593C311.514 182.304 305.853 186.651 284.783 204.157C269.434 216.906 251.755 222.85 246.176 217.135C242.862 213.738 243.46 212.356 249.139 210.284C257.759 207.136 263.983 202.325 280.87 185.759C311.663 155.546 327.288 146.873 354.422 144.923C380.886 143.022 414.6 158.173 440.218 183.481C448.002 191.17 448.472 191.106 442.987 183.094C407.991 131.976 356.352 110.688 314.384 130.08C301.964 135.816 292.71 143.018 274.781 160.891C251.639 183.965 241.671 190.351 231.711 188.49C229.559 188.087 225.788 182.992 227.188 182.38C240.918 176.38 248.409 170.071 264.292 151.134C269.946 144.391 276.674 136.694 279.243 134.027C319.918 91.8112 369.875 93.7056 416.819 139.242L424.51 146.7L420.839 140.636C390.453 90.4087 341.11 69.4145 301.056 89.6697C286.279 97.1427 276.197 106.018 259.228 126.494C239.3 150.542 229.53 158.327 218.248 159.141C213.849 159.46 208.678 155.453 211.405 153.839C211.587 153.73 214.341 152.394 217.522 150.874C225.122 147.236 237.597 135.338 246.17 123.549C266.779 95.206 273.148 87.8532 284.516 79.2872C317.856 54.1658 359.019 59.504 394.716 93.5809C400.589 99.1862 400.985 99.4289 399.097 96.2656C369.544 46.7374 322.115 29.1446 284.053 53.5915C272.604 60.9443 262.18 72.8561 246.702 96.2656C217.858 139.89 198.607 141.562 170.848 102.857C136.742 55.3011 101.227 35.834 60.4338 42.3275ZM81.3034 84.4829C66.5867 86.1836 45.8707 94.7563 32.0534 104.863L25.4108 109.722L29.0771 121.256C31.094 127.598 32.9082 133.272 33.1108 133.862C33.3423 134.539 37.031 132.497 43.0436 128.366C90.4749 95.787 140.43 101.179 184.725 143.657C195.261 153.761 195.154 152.799 184.051 137.571C157.16 100.691 117.658 80.2801 81.3034 84.4829ZM94.3193 128.415C76.0765 132.388 58.5728 140.883 43.796 152.942L40.2031 155.874L44.5351 168.93C47.6182 178.217 49.1587 181.763 49.8688 181.213C50.4186 180.786 53.8936 178.059 57.5911 175.149C104.889 137.942 161.556 143.151 211.242 189.276C220.721 198.076 206.866 179.357 195.286 167.716C163.352 135.625 126.713 121.362 94.3193 128.415ZM113.729 172.376C92.4516 176.963 55.2448 198.45 56.9322 205.175C58.1899 210.183 66.3374 229.88 66.8405 229.127C68.1539 227.157 88.0751 213.026 95.2298 208.988C138.707 184.448 188.363 191.248 229.71 227.407C240.095 236.487 240.707 236.825 236.949 231.425C206.728 187.983 155.408 163.389 113.729 172.376ZM144.758 215.867C125.135 218.433 99.5083 230.407 80.5042 245.888L75.6625 249.832L77.5101 253.483C79.8141 258.038 89.58 273.222 90.2055 273.222C90.4593 273.222 96.4653 269.326 103.551 264.562C149.82 233.468 189.983 231.411 235.685 257.795C251.984 267.205 263.063 272.115 271.304 273.582L274.347 274.123L270.87 272.67C264.735 270.105 251.114 260.682 242.608 253.12C209.366 223.56 177.806 211.546 144.758 215.867ZM576.521 240.992C576.521 245.678 556.401 268.841 547.177 274.769C526.263 288.214 509.556 286.621 469.564 267.374C432.221 249.398 415.855 245.364 395.758 249.178C382.384 251.715 381.912 253.136 389.977 266.563C407.162 295.178 423.264 312.448 442.608 323.019C476.587 341.587 520.982 328.747 548.641 292.353C555.469 283.368 555.776 282.518 550.34 287.64C522.322 314.048 483.982 312.53 450.435 283.686C442.8 277.122 456.477 278.765 482.578 287.547C519.883 300.099 542.609 294.953 561.993 269.56C567.784 261.975 578.927 240.18 577.015 240.18C576.743 240.18 576.521 240.545 576.521 240.992Z" fill="white" style="fill:white;fill-opacity:1;"/>
</svg>
